<?xml version="1.0" encoding="utf-8"?>
<!-- Generator: Adobe Illustrator 25.2.3, SVG Export Plug-In . SVG Version: 6.00 Build 0)  -->
<svg version="1.1" id="Layer_1" xmlns="http://www.w3.org/2000/svg" xmlns:xlink="http://www.w3.org/1999/xlink" x="0px" y="0px"
	 viewBox="0 0 72.5 24" style="enable-background:new 0 0 72.5 24;" xml:space="preserve">
<style type="text/css">
	.st0{fill:#1E6AFF;}
</style>
<g id="logo_kimpro" transform="translate(-95 -148)">
	<path id="패스_39" class="st0" d="M166.1,158.7c0.9,0,1.4-0.3,1.4-1v-7.6c0-0.6-0.5-1-1.4-1h-18.7c-0.8,0-1.2,0.3-1.2,1v1.3
		c0,0.7,0.4,1.1,1.2,1.1h15.5v2.9h-15.4c-0.9,0-1.4,0.3-1.4,1v8.5c0,0.7,0.5,1,1.4,1c2.3,0,4.6,0,6.9-0.1l-0.1,2.3h-6
		c-0.1,0-0.2,0-0.4,0h-25.9c-1,0-1.5,0.3-1.5,0.9v1.6c0,0.6,0.5,0.9,1.5,0.9h25.1c0.1,0,0.2,0,0.4,0h18.7c0.8,0,1.2-0.3,1.2-1V169
		c0-0.6-0.5-0.8-1.3-0.8H159l0.1-2.6c2.4-0.2,4.7-0.5,7-1c0.8-0.1,1.3-0.5,1.3-1.2v-1.6c0-0.6-0.4-0.8-1.2-0.7
		c-5.1,1-10.2,1.4-15.4,1.3v-3.6H166.1z"/>
	<path id="패스_40" class="st0" d="M121.7,166.4h19.7c0.8,0,1.2-0.3,1.2-0.8V164c0-0.7-0.4-1.1-1.2-1.1h-2.3
		c-0.3,0-0.5-0.2-0.5-0.5c0,0,0,0,0,0v-6.7c0-0.2-0.1-0.4-0.4-0.5l-3.7-1.1c-0.3-0.1-0.5,0.1-0.6,0.3c0,0,0,0.1,0,0.1v7.8
		c0,0.3-0.2,0.5-0.5,0.5c0,0,0,0,0,0h-3.8c-0.3,0-0.5-0.2-0.5-0.5v-9.4c0-0.3,0.2-0.5,0.5-0.5h11.8c0.7,0,1.1-0.3,1.1-0.8v-2
		c0-0.5-0.4-0.8-1.2-0.8h-19.7c-0.7,0-1.1,0.3-1.1,0.9v1.6c0,0.6,0.4,0.9,1.1,0.9h2.4c0.3,0,0.5,0.2,0.5,0.5c0,0,0,0,0,0v9.4
		c0,0.3-0.2,0.5-0.5,0.5c0,0,0,0,0,0h-2.4c-0.7,0-1.1,0.3-1.1,0.9v1.6C120.6,166.1,121,166.4,121.7,166.4"/>
	<path id="패스_41" class="st0" d="M118,171c0,0.7-0.4,1-1.2,1H99.3c-0.8,0-1.3-0.3-1.3-1v-6.9c0-0.7,0.4-1,1.2-1h17.4
		c0.9,0,1.3,0.3,1.3,0.9V171z M113.5,166.2h-11.2v2.8h11.2L113.5,166.2z M117.7,161.1c0,0.6-0.4,0.9-1.2,0.9h-2.4
		c-0.8,0-1.2-0.3-1.2-0.9v-11.5c0-0.5,0.4-0.8,1.1-0.8h2.4c0.8,0,1.2,0.3,1.2,0.9L117.7,161.1z"/>
	<path id="패스_42" class="st0" d="M101.1,151.7l-1.2-0.1c-0.2,0-0.3,0-0.5,0.1l-0.8,0.5c-0.1,0.1-0.3,0.1-0.5,0.1l-2.6-0.3
		c-0.3,0-0.6-0.3-0.6-0.6c0,0,0,0,0,0l0.4-2.9c0.1-0.3,0.4-0.6,0.7-0.5l2.8,0.3c0.1,0,0.3,0.1,0.4,0.2l0.5,0.5
		c0.1,0.1,0.3,0.2,0.4,0.2l1.1,0.1c0.1,0,0.3,0,0.4-0.1l1.9-0.8c0.1,0,0.2-0.1,0.4-0.1l4.7,0.5c0.1,0,0.2,0,0.2,0.1
		c1.3,0.8,2.2,2.1,2.4,3.5c0.1,0.5-0.6,0.9-1,0.6l-1.4-0.9c-0.1-0.1-0.2-0.1-0.3-0.1l-0.5-0.1l-0.4,2.6c-0.1,0.3-0.4,0.6-0.7,0.5
		l-3-0.3c-0.3,0-0.6-0.3-0.6-0.6c0,0,0,0,0,0l0.1-0.5c0-0.2-0.1-0.4-0.2-0.5l-1.7-1.3C101.4,151.8,101.2,151.7,101.1,151.7"/>
	<path id="패스_43" class="st0" d="M107.4,156.1l-0.7,5.3c-0.1,0.7-0.7,1.1-1.4,1.1l-2.8-0.2c-0.2,0-0.3-0.1-0.3-0.3c0,0,0,0,0,0
		l0.8-6.2c0-0.2,0.2-0.3,0.3-0.2l3.7,0.3C107.3,155.7,107.4,155.9,107.4,156.1C107.4,156,107.4,156,107.4,156.1"/>
</g>
</svg>
