<svg id="Layer_1" data-name="Layer 1" xmlns="http://www.w3.org/2000/svg" xmlns:xlink="http://www.w3.org/1999/xlink" viewBox="0 0 500 500"><defs><style>.cls-1,.cls-10,.cls-5{fill:none;}.cls-2{clip-path:url(#clip-path);}.cls-3,.cls-7{fill:#fff;}.cls-3,.cls-5,.cls-9{stroke:#343535;}.cls-10,.cls-3,.cls-5,.cls-9{stroke-linecap:round;stroke-linejoin:round;}.cls-3,.cls-5{stroke-width:5.59px;}.cls-4{fill:#7a7a7a;}.cls-6{fill:#e0dddd;}.cls-8{fill:#f2f2f2;}.cls-9{fill:#164f7c;stroke-width:3.86px;}.cls-10{stroke:#fff;stroke-width:3.2px;}.cls-11{fill:#383b3d;}.cls-12{fill:#343535;}</style><clipPath id="clip-path"><rect class="cls-1" x="-340.25" y="-55.1" width="1211.25" height="554.97"/></clipPath></defs><g class="cls-2"><path class="cls-3" d="M407.42,352s52.57,59.3,47.79,183.05H395.12L356.2,403.2Z"/><ellipse class="cls-4" cx="149.78" cy="174.7" rx="38.96" ry="43.06"/><path class="cls-5" d="M188.74,174.7c0-19.33-11.52-35.66-27.38-41.13a35.93,35.93,0,0,0-11.58-1.93c-16.69,0-30.93,11.61-36.47,27.92a46.34,46.34,0,0,0-1.94,7.95"/><path class="cls-3" d="M105,354.22s-52.62,59.29-47.84,183h60.14l39-131.87Z"/><path class="cls-6" d="M417.39,346.92c-27.91-72-99.49-69.5-99.49-69.5L256.4,281l-61.5-3.57s-73.59,8.48-101.5,80.5L134,408.39A904.27,904.27,0,0,0,113.33,515H399.45C391.88,456.57,366,398.94,366,398.94Z"/><path class="cls-5" d="M417.39,346.92c-27.91-72-99.49-69.5-99.49-69.5L256.4,281l-61.5-3.57s-73.59,8.48-101.5,80.5L134,408.39A904.27,904.27,0,0,0,113.33,515H399.45C391.88,456.57,366,398.94,366,398.94Z"/><ellipse class="cls-4" cx="344.55" cy="174.7" rx="38.96" ry="43.06"/><ellipse class="cls-7" cx="137.98" cy="221.42" rx="30.24" ry="33.48"/><ellipse class="cls-8" cx="137.98" cy="221.42" rx="15.69" ry="17.38"/><ellipse class="cls-7" cx="355.51" cy="221.42" rx="30.24" ry="33.48"/><path class="cls-5" d="M305.6,174.7c0-19.33,11.52-35.66,27.38-41.13a35.93,35.93,0,0,1,11.58-1.93c16.69,0,30.93,11.61,36.48,27.92a47.28,47.28,0,0,1,1.94,7.95"/><ellipse class="cls-8" cx="355.51" cy="221.42" rx="15.69" ry="17.38"/><ellipse class="cls-7" cx="247.5" cy="207.86" rx="108.61" ry="111.4"/><path class="cls-5" d="M352.15,221.42c0,52.22-46.85,94.56-104.63,94.56s-104.65-42.34-104.65-94.56"/><path class="cls-5" d="M346.24,253.3a27.69,27.69,0,0,0,9.28,1.6c16.69,0,30.28-15,30.28-33.48s-13.55-33.5-30.28-33.5a17.62,17.62,0,0,0-2.62.13"/><path class="cls-9" d="M361,349.71h0L350.78,284.8a6.15,6.15,0,0,0-12.15,1.92l9.54,60.37a4,4,0,0,1-3.3,4.53l-.17,0a1012.37,1012.37,0,0,1-181.41,3.9,3.42,3.42,0,0,1-3.16-3.63l3.93-62a6.15,6.15,0,1,0-12.27-.78h0l-4,63.62a1.6,1.6,0,0,1-1.7,1.48h0L102.12,527.69l303.74-5.05L365,352.4A3.52,3.52,0,0,0,361,349.71Z"/><path class="cls-5" d="M147.27,253.3a27.64,27.64,0,0,1-9.27,1.6c-16.71,0-30.28-15-30.28-33.48s13.54-33.5,30.28-33.5a17.42,17.42,0,0,1,2.61.13"/><path class="cls-5" d="M138.89,207.84A113.83,113.83,0,0,1,145,171c14.83-43.41,55.13-74.55,102.53-74.55a106.43,106.43,0,0,1,38.17,7.08"/><path class="cls-10" d="M230.93,187.31c-9.77.63-21.59,10.66-21.59,23.8h0s25,3.48,34.95-.58a8.54,8.54,0,0,1,6.44,0c10,4.06,35,.58,35,.58h0"/><path class="cls-5" d="M237.74,269.78h0a24,24,0,0,0,18.75.61l1.71-.65"/><path class="cls-5" d="M320.37,125.23a111.89,111.89,0,0,1,30.28,47.44"/><path class="cls-11" d="M257.62,146a11.23,11.23,0,0,1,4.67-4.18,13.82,13.82,0,0,1,6.31-1.46,14.08,14.08,0,0,1,6.31,1.46,11.4,11.4,0,0,1,4.66,4.18,4,4,0,0,1-3.89,5.94l-.95-.13c-1.26-.16-2.32-.31-3.31-.39s-1.88-.12-2.78-.12a22,22,0,0,0-2.78.12c-1,.13-2,.23-3.3.39l-.95.12a3.95,3.95,0,0,1-3.9-5.93Z"/><path class="cls-11" d="M220.8,146a11.2,11.2,0,0,1,4.66-4.18,13.82,13.82,0,0,1,6.31-1.46,14.08,14.08,0,0,1,6.31,1.46,11.29,11.29,0,0,1,4.67,4.18,3.93,3.93,0,0,1-1.36,5.4h0a4,4,0,0,1-2.52.53l-.95-.13c-1.26-.16-2.32-.31-3.29-.39s-1.88-.12-2.79-.12a22.25,22.25,0,0,0-2.79.12c-1,.13-2,.23-3.29.39l-1,.12a4,4,0,0,1-3.9-5.93Z"/><path class="cls-12" d="M253.41,182.27a8.17,8.17,0,0,1,3.38-4,9.92,9.92,0,0,1,10.42,0,8.17,8.17,0,0,1,3.38,4,2.63,2.63,0,0,1-3.44,3.38l-.61-.24a14.35,14.35,0,0,0-2.48-.8,9.69,9.69,0,0,0-4.22,0,13,13,0,0,0-2.43.78l-.61.24a2.65,2.65,0,0,1-3.43-1.47h0A2.6,2.6,0,0,1,253.41,182.27Z"/><path class="cls-12" d="M224.18,182.27a8.24,8.24,0,0,1,3.39-4,9.91,9.91,0,0,1,10.41,0,8.24,8.24,0,0,1,3.39,4,2.63,2.63,0,0,1-3.44,3.38l-.62-.24a14.64,14.64,0,0,0-2.43-.78,10,10,0,0,0-4.21,0,15,15,0,0,0-2.43.78l-.61.24a2.63,2.63,0,0,1-3.42-1.46h0A2.68,2.68,0,0,1,224.18,182.27Z"/><path class="cls-11" d="M264.54,187.39a53,53,0,0,0-14.55.66,9.27,9.27,0,0,1-4.06,0,53,53,0,0,0-14.55-.66c-9.78.63-21.6,10.66-21.6,23.81h0s25,3.48,35-.58a8.45,8.45,0,0,1,6.44,0c9.94,4.06,34.95.58,34.95.58h0C286.13,198.05,274.31,188,264.54,187.39Z"/><ellipse class="cls-12" cx="247.13" cy="237.08" rx="18.41" ry="24.58"/></g></svg>