<svg xmlns="http://www.w3.org/2000/svg" width="56" height="56" viewBox="0 0 56 56">
  <defs>
    <style>
      .cls-1 {
        fill: #fff;
      }

      .cls-2, .cls-4 {
        fill: #1E6AFF;
      }

      .cls-2 {
        stroke: #4b4b4b;
      }

      .cls-3 {
        fill: #4b4b4b;
      }

      .cls-3, .cls-4 {
        fill-rule: evenodd;
      }

      .cls-5 {
        stroke: none;
      }

      .cls-6 {
        fill: none;
      }
    </style>
  </defs>
  <g id="그룹_10636" data-name="그룹 10636" transform="translate(-220 -262)">
    <circle id="타원_62" data-name="타원 62" class="cls-1" cx="28" cy="28" r="28" transform="translate(220 262)"/>
    <g id="그룹_10612" data-name="그룹 10612" transform="translate(0 -3.439)">
      <g id="타원_97" data-name="타원 97" class="cls-2" transform="translate(245.7 300.788)">
        <circle class="cls-5" cx="2.24" cy="2.24" r="2.24"/>
        <circle class="cls-6" cx="2.24" cy="2.24" r="1.74"/>
      </g>
      <g id="타원_99" data-name="타원 99" class="cls-2" transform="translate(250.168 294.068)">
        <circle class="cls-5" cx="2.24" cy="2.24" r="2.24"/>
        <circle class="cls-6" cx="2.24" cy="2.24" r="1.74"/>
      </g>
      <g id="타원_98" data-name="타원 98" class="cls-2" transform="translate(254.6 300.788)">
        <circle class="cls-5" cx="2.24" cy="2.24" r="2.24"/>
        <circle class="cls-6" cx="2.24" cy="2.24" r="1.74"/>
      </g>
      <g id="그룹_10611" data-name="그룹 10611" transform="translate(235 279.439)">
        <g id="그룹_10610" data-name="그룹 10610">
          <path id="패스_280" data-name="패스 280" class="cls-3" d="M30.322,20.566a4.8,4.8,0,0,0-3.533-1.524c-.119,0-.235.009-.352.017a4.29,4.29,0,0,0,.646-2.257c0-.14-.009-.279-.022-.416a.536.536,0,0,0,.022-.144L27,7.855c1.813.143,3.324,1.305,3.324,3.066Zm-7.067,2.957a3.538,3.538,0,1,1,3.533,3.36A3.45,3.45,0,0,1,23.256,23.522Zm-8.833,0a3.538,3.538,0,1,1,3.533,3.36A3.45,3.45,0,0,1,14.422,23.522Zm-3.533,3.36H7.944a1.682,1.682,0,1,1,0-3.36H9.123a.6.6,0,0,0,.4-.155.467.467,0,0,0,.055-.059c.009-.011.02-.021.029-.033a.554.554,0,0,0,.032-.056.433.433,0,0,0,.022-.039.533.533,0,0,0,.047-.218V12.321h3.533v11.2a4.376,4.376,0,0,0,1.6,3.361ZM8.533,7.841V22.4H7.944a3.025,3.025,0,0,0-1.766.565V9.521a1.727,1.727,0,0,1,1.766-1.68ZM17.661,16.8a4.29,4.29,0,0,0,.646,2.258c-.116-.008-.233-.017-.352-.017a4.8,4.8,0,0,0-3.533,1.524V11.2a3.432,3.432,0,0,1,3.239-3.347ZM22.372,1.12a3.332,3.332,0,0,1,3.372,3.36l.162,9.365a4.858,4.858,0,0,0-7.067,0V4.481A3.45,3.45,0,0,1,22.372,1.12Zm.352,20.145a4.373,4.373,0,0,0-.352.71,4.373,4.373,0,0,0-.352-.71c.116.008.233.017.352.017S22.607,21.273,22.724,21.265ZM25.906,16.8a3.538,3.538,0,0,1-7.067,0,3.538,3.538,0,0,1,7.067,0ZM27,6.735c-.038-.743-.13-2.877-.13-2.877A4.712,4.712,0,0,0,22.372,0a4.6,4.6,0,0,0-4.711,4.48V6.735A4.58,4.58,0,0,0,13.244,11.2H9.711V7.284A.523.523,0,0,0,9.7,7.167a.577.577,0,0,0-.543-.443l-1.212,0A2.876,2.876,0,0,0,5,9.519V25.2A2.877,2.877,0,0,0,7.944,28H17.956a4.7,4.7,0,0,0,4.417-2.933A4.7,4.7,0,0,0,26.789,28a4.6,4.6,0,0,0,4.711-4.48c0-.141-.009-.279-.022-.417a.538.538,0,0,0,.022-.145V11.2A4.658,4.658,0,0,0,27,6.735Z" transform="translate(-5)"/>
        </g>
        <path id="패스_287" data-name="패스 287" class="cls-4" d="M11.686,28V42.868h-.672A3.729,3.729,0,0,0,9,43.444V29.715A1.885,1.885,0,0,1,11.014,28Z" transform="translate(-7.871 -20.332)"/>
      </g>
    </g>
  </g>
</svg>
