<svg xmlns="http://www.w3.org/2000/svg" width="56" height="56" viewBox="0 0 56 56">
  <defs>
    <style>
      .cls-1, .cls-3 {
        fill: #fff;
      }

      .cls-2 {
        fill: #1E6AFF;
      }

      .cls-2, .cls-3 {
        stroke: #4b4b4b;
        stroke-linecap: round;
        stroke-linejoin: round;
      }
    </style>
  </defs>
  <g id="그룹_10639" data-name="그룹 10639" transform="translate(-16 -353)">
    <circle id="타원_72" data-name="타원 72" class="cls-1" cx="28" cy="28" r="28" transform="translate(16 353)"/>
    <g id="그룹_10609" data-name="그룹 10609" transform="translate(-371.265 190.304)">
      <path id="패스_273" data-name="패스 273" class="cls-2" d="M413.99,265.1v-3.942l-4.36-1.135v-9.018l4.36,1.314v-3.882l-11.825-3.285V248.8l4.42,1.075v9.257l-4.42-1.284v3.673Z" transform="translate(0 -60.808)"/>
      <path id="패스_274" data-name="패스 274" class="cls-3" d="M406.585,334.941l-4.42,2.18,4.42,1.284Z" transform="translate(0 -140.085)"/>
      <path id="패스_275" data-name="패스 275" class="cls-3" d="M413.99,187.629l14.394-7.824-12.068-2.85-14.151,7.389Z" transform="translate(0 0)"/>
      <path id="패스_276" data-name="패스 276" class="cls-3" d="M517.57,206.381v3.643l-14.394,8.063V214.2Z" transform="translate(-89.186 -26.576)"/>
      <path id="패스_277" data-name="패스 277" class="cls-3" d="M480.743,256.376v5.375l-14.809,8.182v-9.018l4.36,1.314Z" transform="translate(-56.304 -70.718)"/>
      <path id="패스_278" data-name="패스 278" class="cls-3" d="M470.295,311.608l14.394-8.182-3.945-1.135-14.809,8.182Z" transform="translate(-56.304 -111.257)"/>
      <path id="패스_279" data-name="패스 279" class="cls-3" d="M517.57,311.983V316.1l-14.394,8v-3.942Z" transform="translate(-89.186 -119.815)"/>
    </g>
  </g>
</svg>
