<svg xmlns="http://www.w3.org/2000/svg" width="56" height="56" viewBox="0 0 56 56">
  <defs>
    <style>
      .cls-1 {
        fill: #fff;
      }

      .cls-2 {
        fill: #4b4b4b;
        stroke: #4b4b4b;
        stroke-width: 0.5px;
      }

      .cls-3 {
        fill: #1E6AFF;
      }
    </style>
  </defs>
  <g id="그룹_10628" data-name="그룹 10628" transform="translate(-16 -171)">
    <circle id="타원_25" data-name="타원 25" class="cls-1" cx="28" cy="28" r="28" transform="translate(16 171)"/>
    <g id="그룹_10603" data-name="그룹 10603" transform="translate(-0.081)">
      <g id="그룹_10602" data-name="그룹 10602" transform="translate(25.481 175.545)">
        <path id="패스_258" data-name="패스 258" class="cls-2" d="M33.86,29.3h-.625v-.532a14.649,14.649,0,0,0-10.773-14.11l.01-.068a1.836,1.836,0,0,0-1.805-2.132H16.559a1.833,1.833,0,0,0-1.805,2.132l.01.068A14.648,14.648,0,0,0,3.986,28.766V29.3h-.62A.365.365,0,0,0,3,29.664a2.32,2.32,0,0,0,2.318,2.318H5.9a2.839,2.839,0,0,0,2.81,2.474h19.8a2.84,2.84,0,0,0,2.815-2.474h.581a2.32,2.32,0,0,0,2.318-2.318A.369.369,0,0,0,33.86,29.3ZM15.476,14.465a1.1,1.1,0,0,1,1.083-1.278h4.108a1.1,1.1,0,0,1,1.083,1.278l0,.015-1.464,8.812a1.092,1.092,0,0,1-1.083.917H18.023a1.1,1.1,0,0,1-1.083-.917ZM4.717,28.766A13.919,13.919,0,0,1,14.886,15.382l1.332,8.026a1.825,1.825,0,0,0,1.805,1.532H19.2A1.825,1.825,0,0,0,21,23.409l1.337-8.026A13.915,13.915,0,0,1,32.5,28.766V29.3H4.717Zm23.8,4.957H8.709a2.111,2.111,0,0,1-2.074-1.742H30.587A2.111,2.111,0,0,1,28.513,33.723Zm3.4-2.474H5.318a1.582,1.582,0,0,1-1.542-1.22H33.451A1.59,1.59,0,0,1,31.909,31.249Z"/>
      </g>
      <path id="패스_259" data-name="패스 259" class="cls-3" d="M34.916,15.267l-1.485,8.942a1.108,1.108,0,0,1-1.1.931H31.138a1.112,1.112,0,0,1-1.1-.931l-1.485-8.957a1.114,1.114,0,0,1,1.1-1.3h4.169a1.121,1.121,0,0,1,1.1,1.3l0,.015" transform="translate(12.346 174.746)"/>
      <path id="패스_260" data-name="패스 260" class="cls-3" d="M32.8,49.761H6.136A1.6,1.6,0,0,1,4.59,48.475H34.35A1.613,1.613,0,0,1,32.8,49.761Z" transform="translate(24.601 157.081)"/>
    </g>
  </g>
</svg>
