<svg xmlns="http://www.w3.org/2000/svg" width="56" height="56" viewBox="0 0 56 56">
  <defs>
    <style>
      .cls-1 {
        fill: #fff;
      }

      .cls-2 {
        fill: none;
      }

      .cls-3 {
        fill: #4b4b4b;
        stroke: #4b4b4b;
        stroke-width: 0.2px;
      }

      .cls-4 {
        fill: #1E6AFF;
      }
    </style>
  </defs>
  <g id="그룹_10641" data-name="그룹 10641" transform="translate(-152 -353)">
    <circle id="타원_73" data-name="타원 73" class="cls-1" cx="28" cy="28" r="28" transform="translate(152 353)"/>
    <g id="그룹_10543" data-name="그룹 10543" transform="translate(82 -185)">
      <rect id="사각형_4183" data-name="사각형 4183" class="cls-2" width="28" height="28" transform="translate(84 553)"/>
      <g id="그룹_10540" data-name="그룹 10540" transform="translate(-110 93.487)">
        <path id="패스_188" data-name="패스 188" class="cls-3" d="M3.857,2H22.429a1.734,1.734,0,0,1,1.857,1.625V5.714h.464a1.4,1.4,0,0,1,1.393,1.393v4.005a1.41,1.41,0,0,1-.925,1.311L14.4,15.709a.463.463,0,0,0-.329.444v.7A.929.929,0,0,1,15,17.74l.464,9.286a.929.929,0,0,1-.928.975H12.679a.929.929,0,0,1-.928-.975l.464-9.286a.929.929,0,0,1,.928-.882v-.7a1.386,1.386,0,0,1,.988-1.333l10.787-3.274a.468.468,0,0,0,.3-.434V7.107a.464.464,0,0,0-.464-.464h-.464V8.732a1.734,1.734,0,0,1-1.857,1.625H3.857A1.734,1.734,0,0,1,2,8.732V3.625A1.734,1.734,0,0,1,3.857,2Zm8.822,25.072h1.857l-.464-9.286h-.929ZM2.929,8.732c0,.384.416.7.929.7H22.429c.513,0,.929-.312.929-.7V3.625c0-.384-.416-.7-.929-.7H3.857c-.513,0-.929.312-.929.7Z" transform="translate(194 458.513)"/>
        <path id="패스_189" data-name="패스 189" class="cls-4" d="M25.343,8.727c0,.379-.414.687-.925.687H5.925c-.51,0-.925-.308-.925-.687V3.687C5,3.308,5.414,3,5.925,3H24.418c.51,0,.925.308.925.687Z" transform="translate(191.982 458.487)"/>
      </g>
    </g>
  </g>
</svg>
