<svg xmlns="http://www.w3.org/2000/svg" width="56" height="56" viewBox="0 0 56 56">
  <defs>
    <style>
      .cls-1 {
        fill: #fff;
      }

      .cls-2 {
        fill: none;
      }

      .cls-3 {
        fill: #4b4b4b;
        stroke: #fff;
        stroke-width: 0.3px;
      }

      .cls-4 {
        fill: #1E6AFF;
      }
    </style>
  </defs>
  <g id="그룹_10642" data-name="그룹 10642" transform="translate(-220 -353)">
    <circle id="타원_75" data-name="타원 75" class="cls-1" cx="28" cy="28" r="28" transform="translate(220 353)"/>
    <g id="그룹_10581" data-name="그룹 10581" transform="translate(-52.5 18.102)">
      <rect id="사각형_4198" data-name="사각형 4198" class="cls-2" width="26" height="26" transform="translate(287.807 349.898)"/>
      <g id="그룹_10580" data-name="그룹 10580" transform="translate(285 350)">
        <path id="패스_229" data-name="패스 229" class="cls-3" d="M79.319,451.548a3.7,3.7,0,0,0-1.978.554c-1.293.8-9.331,7.619-9.948,8.7a2.128,2.128,0,0,0,.161,2.11,3.227,3.227,0,0,0,.269.383l-.864,3.8a21.481,21.481,0,0,0-6.107-2.038,1.875,1.875,0,0,0-.375.034c-1.5.3-6.873,7.893-7.625,10.374a1.6,1.6,0,0,0,.192,1.6,1.857,1.857,0,0,0,1.4.381c3.131,0,17.76-3.174,19-4.875a1.158,1.158,0,0,0,.053-1.243c-.491-.964-2.682-2.344-5.137-3.564l.791-3.479a2.915,2.915,0,0,0,1.082.212,3.113,3.113,0,0,0,.611-.061c2.136-.427,9.764-4.669,11.992-7.158a2.88,2.88,0,0,0,.525-3.206A4.56,4.56,0,0,0,79.319,451.548Zm-7.3,20.258c-2.037,1.157-13.947,4.125-17.573,4.125-.066,0-.123,0-.173,0,.487-1.9,5.362-8.662,6.545-9.361h.035a18.367,18.367,0,0,1,5.235,1.771l-4.816,2.617a.755.755,0,0,0,.721,1.327l5.779-3.141A17.28,17.28,0,0,1,72.017,471.806ZM81.7,456.267c-2.045,2.286-9.517,6.355-11.162,6.684a1.506,1.506,0,0,1-1.148-.242,1.813,1.813,0,0,1-.491-.489c-.008-.012-.019-.025-.026-.037a.925.925,0,0,1-.179-.624,103.51,103.51,0,0,1,9.437-8.173,2.218,2.218,0,0,1,1.184-.328,3.075,3.075,0,0,1,2.658,1.626A1.376,1.376,0,0,1,81.7,456.267Z" transform="translate(-52.722 -451.548)"/>
        <path id="패스_230" data-name="패스 230" class="cls-4" d="M205.194,467.977c-2.134,2.357-9.928,6.552-11.644,6.892a1.585,1.585,0,0,1-1.2-.25,1.878,1.878,0,0,1-.512-.5c-.008-.013-.145-.243-.153-.256a1.139,1.139,0,0,1-.171-.752,102.567,102.567,0,0,1,9.6-8.3,2.333,2.333,0,0,1,1.235-.338,4.005,4.005,0,0,1,3.125,1.874A1.406,1.406,0,0,1,205.194,467.977Z" transform="translate(-175.744 -463.195)"/>
      </g>
    </g>
  </g>
</svg>
