<svg xmlns="http://www.w3.org/2000/svg" width="56" height="56" viewBox="0 0 56 56">
  <defs>
    <style>
      .cls-1 {
        fill: #fff;
      }

      .cls-2 {
        fill: #4b4b4b;
      }

      .cls-3 {
        fill: none;
        stroke: #4b4b4b;
        stroke-width: 1.3px;
      }

      .cls-4 {
        fill: #1E6AFF;
      }
    </style>
  </defs>
  <g id="그룹_10640" data-name="그룹 10640" transform="translate(-84 -353)">
    <circle id="타원_74" data-name="타원 74" class="cls-1" cx="28" cy="28" r="28" transform="translate(84 353)"/>
    <g id="그룹_10583" data-name="그룹 10583" transform="translate(0.575 1)">
      <g id="그룹_10582" data-name="그룹 10582" transform="translate(95.325 367)">
        <path id="패스_222" data-name="패스 222" class="cls-2" d="M34.052,33.165h-1.76V13.313A1.713,1.713,0,0,0,30.578,11.6H6.549a1.713,1.713,0,0,0-1.713,1.713V33.165H3.071a.571.571,0,0,0-.571.571v3.293a.571.571,0,0,0,.571.571H34.124a.571.571,0,0,0,.571-.571V33.774A.66.66,0,0,0,34.052,33.165ZM6.528,12.819H30.6a.507.507,0,0,1,.507.507V33.2H29.313V15.654a1.075,1.075,0,0,0-1.075-1.075H8.89a1.075,1.075,0,0,0-1.075,1.075V33.165H6.021V13.326A.507.507,0,0,1,6.528,12.819ZM9,32.689V16.24a.476.476,0,0,1,.476-.476H17.5a.476.476,0,0,1,.476.476V32.689a.476.476,0,0,1-.476.476H9.476A.476.476,0,0,1,9,32.689ZM19.666,15.764h8.019a.476.476,0,0,1,.476.476V32.689a.476.476,0,0,1-.476.476H19.666a.476.476,0,0,1-.476-.476V16.24A.476.476,0,0,1,19.666,15.764ZM33.175,36.381H3.987a.3.3,0,0,1-.3-.3V34.652a.3.3,0,0,1,.3-.3H33.175a.3.3,0,0,1,.3.3v1.427A.3.3,0,0,1,33.175,36.381Z" transform="translate(-2.5 -11.6)"/>
        <path id="패스_223" data-name="패스 223" class="cls-3" d="M6.5,14H26.232" transform="translate(-0.405 -0.261)"/>
      </g>
      <path id="패스_224" data-name="패스 224" class="cls-4" d="M13.41,15.2H37.617a.578.578,0,0,1,.51.628V36.075H36.266V18.716c0-.736-.428-1.333-1.025-1.333H15.786c-.6,0-.96.6-.96,1.333V36.075H12.9V15.828A.578.578,0,0,1,13.41,15.2Z" transform="translate(85.823 352.816)"/>
    </g>
  </g>
</svg>
