<svg xmlns="http://www.w3.org/2000/svg" width="56" height="56" viewBox="0 0 56 56">
  <defs>
    <style>
      .cls-1 {
        fill: #fff;
      }

      .cls-2 {
        fill: #1E6AFF;
      }

      .cls-3 {
        fill: #4b4b4b;
        stroke: #4b4b4b;
        stroke-miterlimit: 10;
        stroke-width: 0.2px;
      }
    </style>
  </defs>
  <g id="그룹_10631" data-name="그룹 10631" transform="translate(-84 -171)">
    <circle id="타원_58" data-name="타원 58" class="cls-1" cx="28" cy="28" r="28" transform="translate(84 171)"/>
    <g id="그룹_10617" data-name="그룹 10617" transform="translate(2.199 0.2)">
      <g id="그룹_10615" data-name="그룹 10615" transform="translate(97.212 186.69)">
        <path id="패스_293" data-name="패스 293" class="cls-2" d="M8.256,4.188l3.611,2.1L8.2,11.983,4.69,9.943a1.386,1.386,0,0,1-.469-1.948L6.386,4.636a1.39,1.39,0,0,1,1.871-.448h0" transform="translate(-3.999 -3.998)"/>
        <path id="패스_294" data-name="패스 294" class="cls-2" d="M8.349,7.979,7.456,9.313a1.5,1.5,0,0,0,.478,2.119l1.607.961a.5.5,0,0,0,.676-.151l2.008-3a.5.5,0,0,0-.159-.706l-1.689-1.01A1.507,1.507,0,0,0,8.349,7.979Z" transform="translate(-5.901 -5.964)"/>
      </g>
      <g id="그룹_10614" data-name="그룹 10614" transform="translate(95.801 185.993)">
        <path id="합치기_4" data-name="합치기 4" class="cls-3" d="M22.131,25a.43.43,0,0,1-.418-.326l-1.491-4.667H9.717L7.924,24.674A.43.43,0,0,1,7.506,25H4.919a.431.431,0,0,1-.339-.166.427.427,0,0,1-.078-.369l1.741-4.458H.582a.432.432,0,0,1-.431-.431L0,13.794a.43.43,0,0,1,.431-.431H17.067l-.763-.986-1.893.379a.428.428,0,0,1-.443-.183l-.693-1.04-1.43.357a.426.426,0,0,1-.49-.225l-.707-1.414L9.259,10.6a.429.429,0,0,1-.49-.225L8.1,9.034,6.761,9.7a.433.433,0,0,1-.386,0l-.862-.431-.008-.006-.017-.007L1.872,7.149a2.152,2.152,0,0,1-.727-3.025L3.157.991a2.153,2.153,0,0,1,2.9-.7h0L9.8,2.481s.005.005.009.007l.011,0,13.792,9.052a.431.431,0,0,1,.165.517l-.51,1.3h5.923a.43.43,0,0,1,.431.431l.151,5.782a.431.431,0,0,1-.431.431H23.7l1.438,4.458a.43.43,0,0,1-.418.535Zm.337-.862h1.7l-1.357-4.131h-1.7Zm-17,0h1.7L8.83,20.007h-1.7ZM1.014,19.145h27.9l-.151-4.92H.862Zm15.807-7.5,1.336,1.723h4.187l.5-1.289L9.712,3.453,6.329,8.717l.239.12L8.1,8.071a.431.431,0,0,1,.578.193l.708,1.414,1.388-.346a.429.429,0,0,1,.491.224l.707,1.415,1.389-.347a.429.429,0,0,1,.463.179l.7,1.052,1.872-.374a.434.434,0,0,1,.085-.008A.429.429,0,0,1,16.821,11.64ZM3.883,1.458,1.87,4.589a1.293,1.293,0,0,0,.436,1.816l3.261,1.9L8.979,3,5.622,1.04a1.288,1.288,0,0,0-1.739.418Zm.961,5.215-1.38-.828a1.293,1.293,0,0,1-.41-1.827l.767-1.15a1.292,1.292,0,0,1,1.742-.391l1.45.871a.43.43,0,0,1,.137.608L6.223,5.347l-.8,1.2a.432.432,0,0,1-.581.13ZM4.539,3.346,3.771,4.5a.433.433,0,0,0-.062.334.428.428,0,0,0,.2.275l1.028.616L6.181,3.853,5.119,3.215A.433.433,0,0,0,4.9,3.154.428.428,0,0,0,4.539,3.346Z" transform="translate(0 0)"/>
        <path id="패스_292" data-name="패스 292" class="cls-2" d="M34.569,35h2.54l.076,5.037H9.076L9,35H34.569" transform="translate(-8.166 -20.783)"/>
      </g>
      <g id="그룹_10616" data-name="그룹 10616" transform="translate(99.514 189.129)">
        <path id="패스_293-2" data-name="패스 293" class="cls-1" d="M5.363,4.062l1.157.7L5.344,6.675,4.221,5.991A.46.46,0,0,1,4.012,5.7a.477.477,0,0,1,.058-.36l.694-1.126A.44.44,0,0,1,5.139,4a.43.43,0,0,1,.225.064h0" transform="translate(-3.999 -3.998)"/>
        <path id="패스_294-2" data-name="패스 294" class="cls-1" d="M7.577,7.543l-.291.466a.549.549,0,0,0-.071.405.519.519,0,0,0,.226.334l.524.336a.155.155,0,0,0,.084.025.161.161,0,0,0,.136-.078L8.84,7.984a.184.184,0,0,0,.024-.135.175.175,0,0,0-.075-.111l-.551-.353A.472.472,0,0,0,7.577,7.543Z" transform="translate(-6.799 -6.893)"/>
      </g>
    </g>
  </g>
</svg>
