<svg xmlns="http://www.w3.org/2000/svg" width="56" height="56" viewBox="0 0 56 56">
  <defs>
    <style>
      .cls-1 {
        fill: #fff;
      }

      .cls-2 {
        fill: none;
      }

      .cls-3, .cls-5 {
        fill: #1E6AFF;
      }

      .cls-4 {
        fill: #4b4b4b;
      }

      .cls-5 {
        stroke: #4b4b4b;
        stroke-width: 0.7px;
      }

      .cls-6 {
        stroke: none;
      }
    </style>
  </defs>
  <g id="그룹_10646" data-name="그룹 10646" transform="translate(-152 -444)">
    <circle id="타원_67" data-name="타원 67" class="cls-1" cx="28" cy="28" r="28" transform="translate(152 444)"/>
    <g id="그룹_10544" data-name="그룹 10544" transform="translate(58 -113)">
      <rect id="사각형_4184" data-name="사각형 4184" class="cls-2" width="28" height="28" transform="translate(108 571)"/>
      <g id="그룹_10542" data-name="그룹 10542" transform="translate(-59 112.306)">
        <path id="패스_187" data-name="패스 187" class="cls-3" d="M41.4,43.624l2.484-3.588h4.1v5.043H41.4Z" transform="translate(136.209 429.175)"/>
        <g id="그룹_10541" data-name="그룹 10541" transform="translate(164 458.694)">
          <g id="그룹_10539" data-name="그룹 10539" transform="translate(0 0)">
            <g id="그룹_10538" data-name="그룹 10538" transform="translate(0 0)">
              <g id="그룹_10537" data-name="그룹 10537" transform="translate(0 0)">
                <path id="패스_184" data-name="패스 184" class="cls-4" d="M33.558,30.9c0-.013,0-.026,0-.039V26.386a.52.52,0,0,0-.52-.52H25.41V17.91a.52.52,0,0,0-.52-.52H19.016a.521.521,0,0,0-.427.222l-.6.865-7.171-7.9a2.536,2.536,0,0,0-4.235.356l0,.007L2.226,19.877a1.589,1.589,0,0,0-.23.729.524.524,0,0,0-.011.1v5.726A4.069,4.069,0,0,0,6.05,30.5h5.564a.52.52,0,0,0,.406-.844l-6.8-8.534L9.14,14.99l5.434,8.7v7.17c0,.013,0,.026,0,.039A3.626,3.626,0,0,0,16.5,37.6H31.633a3.626,3.626,0,0,0,1.926-6.7ZM11.3,12.658l6.074,6.694L15.118,22.6,9.99,14.388A2.546,2.546,0,0,0,11.3,12.658ZM15.614,23.7l2.479-3.559h4.055v4.988H15.614Zm-6.8-13.068a1.49,1.49,0,0,1,1.018.4l.151.166a1.486,1.486,0,0,1,.332.93,1.5,1.5,0,1,1-1.5-1.5ZM3.593,20.144a.567.567,0,1,1-.567.567.555.555,0,0,1,.023-.151s0,0,0-.007l.089-.183A.564.564,0,0,1,3.593,20.144Zm6.943,9.317H6.05a3.028,3.028,0,0,1-3.025-3.025V22.209a1.559,1.559,0,0,0,1.546-.234ZM4.868,19.746a1.6,1.6,0,0,0-1.117-.625l2.822-5.8a2.548,2.548,0,0,0,1.59,1.265Zm10.746,6.426h7.054a.52.52,0,0,0,.52-.52V19.625a.52.52,0,0,0-.52-.52H18.818l.47-.675h5.083v7.956a.52.52,0,0,0,.52.52h7.632v3.549a3.606,3.606,0,0,0-.89-.115H16.5a3.606,3.606,0,0,0-.89.115ZM31.633,36.559H16.5a2.59,2.59,0,0,1,0-5.18H31.633a2.59,2.59,0,0,1,0,5.18Z" transform="translate(-1.986 -9.596)"/>
              </g>
              <path id="패스_185" data-name="패스 185" class="cls-3" d="M12.622,52.932H8.062a3.079,3.079,0,0,1-3.076-3.076v-4.3a1.586,1.586,0,0,0,1.572-.237Z" transform="translate(-3.955 -32.999)"/>
            </g>
          </g>
          <g id="타원_88" data-name="타원 88" class="cls-5" transform="translate(14.558 23.196)">
            <circle class="cls-6" cx="1.3" cy="1.3" r="1.3"/>
            <circle class="cls-2" cx="1.3" cy="1.3" r="0.95"/>
          </g>
          <g id="타원_89" data-name="타원 89" class="cls-5" transform="translate(18.718 23.196)">
            <circle class="cls-6" cx="1.3" cy="1.3" r="1.3"/>
            <circle class="cls-2" cx="1.3" cy="1.3" r="0.95"/>
          </g>
          <g id="타원_90" data-name="타원 90" class="cls-5" transform="translate(22.878 23.196)">
            <circle class="cls-6" cx="1.3" cy="1.3" r="1.3"/>
            <circle class="cls-2" cx="1.3" cy="1.3" r="0.95"/>
          </g>
          <g id="타원_91" data-name="타원 91" class="cls-5" transform="translate(27.037 23.196)">
            <circle class="cls-6" cx="1.3" cy="1.3" r="1.3"/>
            <circle class="cls-2" cx="1.3" cy="1.3" r="0.95"/>
          </g>
        </g>
      </g>
    </g>
  </g>
</svg>
