<svg xmlns="http://www.w3.org/2000/svg" width="56" height="56" viewBox="0 0 56 56">
  <defs>
    <style>
      .cls-1 {
        fill: #fff;
      }

      .cls-2 {
        fill: #4b4b4b;
      }

      .cls-2, .cls-3 {
        stroke: #fff;
        stroke-width: 0.3px;
      }

      .cls-3 {
        fill: #1E6AFF;
      }
    </style>
  </defs>
  <g id="그룹_10643" data-name="그룹 10643" transform="translate(-288 -353)">
    <circle id="타원_76" data-name="타원 76" class="cls-1" cx="28" cy="28" r="28" transform="translate(288 353)"/>
    <g id="그룹_10613" data-name="그룹 10613" transform="translate(299.34 365.913)">
      <path id="패스_288" data-name="패스 288" class="cls-2" d="M23.949,5.873H20.7V1.818a.814.814,0,0,0-1.62,0V5.873H14.227V1.818a.814.814,0,0,0-1.62,0V5.873H9.366a.806.806,0,0,0-.806.806v8.1a5.676,5.676,0,0,0,5.667,5.667h1.62V21.5a4.022,4.022,0,0,0,2.572,3.747,2.4,2.4,0,0,1,1.517,2.238l-.067,3.878a.814.814,0,0,0,1.62,0l.067-3.878a4.012,4.012,0,0,0-2.572-3.747A2.4,2.4,0,0,1,17.468,21.5V20.448h1.62a5.676,5.676,0,0,0,5.667-5.667v-8.1a.806.806,0,0,0-.806-.806Zm-.814,8.908a4.056,4.056,0,0,1-4.055,4.047H14.227a4.056,4.056,0,0,1-4.055-4.047V7.494H23.135Z" transform="translate(0 0)"/>
      <path id="패스_289" data-name="패스 289" class="cls-3" d="M19.559,13.682H17.129l1.46-1.907a.816.816,0,0,0-1.207-1.1.87.87,0,0,0-.09.119l-2.439,3.212a.808.808,0,0,0,.653,1.3h2.431l-1.46,1.95a.807.807,0,0,0,.187,1.126l.01.008a.808.808,0,0,0,1.13-.159l0,0,2.439-3.247a.807.807,0,0,0-.653-1.3Z" transform="translate(-0.879 -1.336)"/>
    </g>
  </g>
</svg>
