<svg xmlns="http://www.w3.org/2000/svg" width="56" height="56" viewBox="0 0 56 56">
  <defs>
    <style>
      .cls-1 {
        fill: #fff;
      }

      .cls-2 {
        fill: none;
      }

      .cls-3 {
        fill: #4b4b4b;
        stroke: #fff;
        stroke-width: 0.3px;
      }

      .cls-4 {
        fill: #1E6AFF;
      }
    </style>
  </defs>
  <g id="그룹_10633" data-name="그룹 10633" transform="translate(-288 -171)">
    <circle id="타원_61" data-name="타원 61" class="cls-1" cx="28" cy="28" r="28" transform="translate(288 171)"/>
    <g id="그룹_10597" data-name="그룹 10597" transform="translate(-1798.9 4)">
      <rect id="사각형_4200" data-name="사각형 4200" class="cls-2" width="28" height="28" transform="translate(2101 181)"/>
      <g id="그룹_10596" data-name="그룹 10596" transform="translate(2097 182)">
        <path id="패스_240" data-name="패스 240" class="cls-3" d="M0,17.676a.749.749,0,0,0,.358.64L17.522,28.764a.746.746,0,0,0,.776,0L35.462,18.316a.746.746,0,0,0,0-1.278L25.246,10.912l1.275-.812a.748.748,0,0,0,0-1.26L18.312,3.616a.748.748,0,0,0-.8,0L9.3,8.84a.748.748,0,0,0,0,1.26l1.275.81L.363,17.039A.748.748,0,0,0,0,17.676ZM24.73,9.47,17.91,13.809,11.091,9.47,17.91,5.131Zm-.891,2.337.984.59L17.91,16.8,11,12.4l.984-.591,5.527,3.518a.742.742,0,0,0,.4.116.751.751,0,0,0,.4-.116Zm9.792,5.873-7.322,4.458L19.3,17.679l6.952-4.424ZM10.933,23l6.978-4.44L24.888,23,17.91,27.252ZM2.19,17.682l7.379-4.427,6.952,4.424L9.512,22.14Z" transform="translate(0 -3.5)"/>
        <path id="패스_241" data-name="패스 241" class="cls-4" d="M21.812,9.294,14.621,14l-7.19-4.7,7.19-4.7Z" transform="translate(3.304 -3.378)"/>
      </g>
    </g>
  </g>
</svg>
