<svg xmlns="http://www.w3.org/2000/svg" width="56" height="56" viewBox="0 0 56 56">
  <defs>
    <style>
      .cls-1 {
        fill: #fff;
      }

      .cls-2 {
        fill: #4b4b4b;
      }

      .cls-2, .cls-3 {
        fill-rule: evenodd;
      }

      .cls-3, .cls-4 {
        fill: #1E6AFF;
      }

      .cls-4 {
        stroke: #4b4b4b;
      }

      .cls-5 {
        stroke: none;
      }

      .cls-6 {
        fill: none;
      }
    </style>
  </defs>
  <g id="그룹_10632" data-name="그룹 10632" transform="translate(-220 -171)">
    <circle id="타원_59" data-name="타원 59" class="cls-1" cx="28" cy="28" r="28" transform="translate(220 171)"/>
    <path id="패스_261" data-name="패스 261" class="cls-2" d="M29.333,26.312a5.056,5.056,0,0,0-7.333,0v-9.68a3.408,3.408,0,0,1,3.667-3.263,3.27,3.27,0,0,1,3.4,3.263ZM22,29.369a3.672,3.672,0,1,1,3.667,3.474A3.574,3.574,0,0,1,22,29.369ZM6.111,32.842H3.055a1.739,1.739,0,1,1,0-3.474H4.278a.626.626,0,0,0,.42-.16.491.491,0,0,0,.057-.061.481.481,0,0,0,.063-.092.57.57,0,0,0,.071-.266v-11H20.778V29.368a4.518,4.518,0,0,0,1.663,3.474ZM3.667,13.158V28.211H3.055a3.147,3.147,0,0,0-1.833.584v-13.9a1.788,1.788,0,0,1,1.833-1.737Zm22-.94a4.592,4.592,0,0,0-4.889,4.413H4.889v-4.05a.541.541,0,0,0-.012-.12A.6.6,0,0,0,4.313,12L3.055,12A2.979,2.979,0,0,0,0,14.893V31.106A2.98,2.98,0,0,0,3.055,34H25.667a4.765,4.765,0,0,0,4.889-4.631c0-.145.014.141,0,0,.013-.048,0-.527,0-.579-.322-12.594-.324-12.986-.38-13.074A4.3,4.3,0,0,0,25.667,12.218Z" transform="translate(233 176.389)"/>
    <path id="패스_263" data-name="패스 263" class="cls-3" d="M6.6,15.79V31.5H5.951A3.4,3.4,0,0,0,4,32.108V17.6A1.887,1.887,0,0,1,5.951,15.79Z" transform="translate(230.22 173.592)"/>
    <g id="타원_96" data-name="타원 96" class="cls-4" transform="translate(256.7 203.9)">
      <circle class="cls-5" cx="2" cy="2" r="2"/>
      <circle class="cls-6" cx="2" cy="2" r="1.5"/>
    </g>
  </g>
</svg>
